<?xml version="1.0" encoding="UTF-8" standalone="no"?>
<svg width="583px" height="181px" viewBox="0 0 583 181" version="1.1" xmlns="http://www.w3.org/2000/svg" xmlns:xlink="http://www.w3.org/1999/xlink" xmlns:sketch="http://www.bohemiancoding.com/sketch/ns">
    <!-- Generator: Sketch 3.2.2 (9983) - http://www.bohemiancoding.com/sketch -->
    <title>Artboard 1</title>
    <desc>Created with Sketch.</desc>
    <defs></defs>
    <g id="Page-1" stroke="none" stroke-width="1" fill="none" fill-rule="evenodd" sketch:type="MSPage">
        <g id="Artboard-1" sketch:type="MSArtboardGroup">
            <path d="M10,122.286199 L15.57979,148.537048 L31.271404,145.201693 L30.725944,142.635504 L18.105343,145.318096 L13.37504,123.06377 C13.294562,122.685152 13.342932,122.498993 13.424428,122.261824 C13.43967,122.126676 13.512225,121.847438 13.407562,121.561899 L10,122.286199 L10,122.286199 Z M52.99418,113.147504 L53.521756,115.629555 L58.401722,114.592287 L62.926359,135.879033 L57.751913,136.978896 L58.279489,139.460947 L71.825601,136.581632 L71.306966,134.14165 L65.838039,135.304106 L61.30446,113.975291 L66.520975,112.866486 L65.993398,110.384435 L52.99418,113.147504 L52.99418,113.147504 Z M110.322383,104.21575 C108.1084,102.487879 105.216641,101.915369 102.355971,102.523423 C97.64428,103.524924 95.02463,107.335479 95.784697,110.911316 C96.106608,112.425788 97.157911,114.268886 99.694219,115.444582 C102.509764,116.692831 106.459541,116.864575 108.696086,117.664294 C110.644451,118.34939 111.435418,119.588284 111.685793,120.766207 C112.168659,123.037915 110.761077,125.931297 106.974897,126.736074 C104.114227,127.344128 101.589503,126.429787 100.098611,125.207759 C99.936637,125.06631 99.909811,124.940104 99.874043,124.771829 C99.865101,124.72976 99.802508,124.43528 99.57428,124.395852 L98.493287,127.791417 C101.028576,129.5829 104.214816,130.092816 107.454104,129.404284 C113.848541,128.045105 115.268121,123.346429 114.561705,120.023004 C114.26662,118.634738 113.494555,116.864195 111.523024,115.656391 C108.795276,113.993755 104.932277,114.023413 102.239278,113.144839 C99.783448,112.347761 98.938829,110.856456 98.71528,109.804739 C98.286065,107.785443 99.626376,105.609869 102.613251,104.974989 C105.053234,104.456355 107.187758,105.18982 108.510375,106.447616 C108.63028,106.598007 108.681291,106.631134 108.717058,106.799408 C108.761768,107.009752 108.923742,107.151201 109.007879,107.133317 L110.322383,104.21575 L110.322383,104.21575 Z M139.640295,122.167174 L142.500965,121.55912 L143.430773,113.315093 L151.760369,111.544583 L156.290546,118.584085 L159.31949,117.940263 L143.5538,93.4148 L143.21725,93.486336 L139.640295,122.167174 L139.640295,122.167174 Z M150.604404,109.415946 L143.536867,110.918198 L144.774172,100.190497 L150.604404,109.415946 L150.604404,109.415946 Z M199.804892,81.897954 L205.384683,108.148804 L208.329489,107.522866 L205.593246,94.649853 L215.395246,92.566374 L214.849786,90.000185 L205.047786,92.083664 L203.304101,83.880274 L215.461947,81.296044 L214.907544,78.687787 L199.804892,81.897954 L199.804892,81.897954 Z M261.214327,82.65135 C260.695693,80.211367 259.821002,76.92371 257.800498,74.451205 C255.360324,71.452332 252.042596,70.530672 249.181926,71.138726 C245.26954,71.970329 240.411309,76.21274 242.602092,86.519564 C244.792875,96.826388 250.941391,98.86115 254.937915,98.011663 C257.756516,97.412551 260.454607,95.212188 261.437239,91.353868 C262.226393,88.240182 261.706136,84.965127 261.214327,82.65135 L261.214327,82.65135 L261.214327,82.65135 Z M249.645891,73.942084 C251.496912,73.548637 254.001111,74.159556 255.864925,76.929183 C257.213349,78.928972 257.876074,81.426266 258.349998,83.655906 C258.716619,85.380721 259.195826,88.048931 258.626976,90.544189 C257.952444,93.369695 256.096745,94.775431 254.329861,95.150994 C251.385054,95.776932 247.18592,93.811478 245.41541,85.481881 C243.752203,77.657109 246.911427,74.523312 249.645891,73.942084 L249.645891,73.942084 L249.645891,73.942084 Z M283.446348,64.163383 L289.026138,90.414233 L304.717752,87.078877 L304.172292,84.512689 L291.551691,87.19528 L286.821388,64.940954 C286.74091,64.562336 286.78928,64.376178 286.870776,64.139008 C286.886019,64.00386 286.958573,63.724622 286.85391,63.439084 L283.446348,64.163383 L283.446348,64.163383 Z M324.496427,55.39395 L330.076217,81.6448 L333.231368,80.974152 L330.924339,70.120435 L332.502837,67.410571 L344.415333,78.772804 C344.415333,78.772804 346.071254,78.288919 348.132618,77.850763 L334.356914,65.169762 L341.879729,51.742985 L340.785944,51.975476 C340.070777,52.12749 339.304599,52.246376 338.553663,52.230115 L330.226865,66.839079 L327.884069,55.817088 C327.848301,55.648813 327.821475,55.522607 327.911913,55.327507 C327.969224,55.183417 328.134858,54.928364 328.030195,54.642825 L324.496427,55.39395 L324.496427,55.39395 Z M367.280263,46.299965 L372.860054,72.550815 L388.804079,69.161807 L388.249677,66.55355 L375.082184,69.352387 L373.016588,59.634525 L383.996511,57.30067 L383.424225,54.608275 L372.444302,56.94213 L370.611198,48.318053 L383.904897,45.49239 L383.350495,42.884132 L367.280263,46.299965 L367.280263,46.299965 Z M409.231668,37.426888 L414.802517,63.635669 L417.789392,63.000789 L415.33035,51.431905 L420.420659,50.349926 L428.685177,60.684818 L431.966534,59.987345 L423.422777,49.579899 C426.432215,48.016867 427.951779,44.616019 427.209595,41.12432 C426.655193,38.516062 424.823488,36.311212 422.166256,35.600913 C420.30467,35.117218 418.65505,35.423887 416.972303,35.781565 L409.231668,37.426888 L409.231668,37.426888 Z M412.799772,39.526472 L417.553532,38.516029 C418.647317,38.283538 419.707976,38.102057 420.875938,38.4254 C422.695456,38.918037 423.885566,40.379876 424.252187,42.104691 C424.609865,43.787438 424.141414,45.513876 422.787897,46.593023 C421.885553,47.312454 420.884847,47.56913 419.875199,47.783738 L414.78489,48.865716 L412.799772,39.526472 L412.799772,39.526472 Z M467.906069,28.208991 C465.692086,26.48112 462.800327,25.90861 459.939657,26.516664 C455.227966,27.518165 452.608316,31.328721 453.368384,34.904557 C453.690294,36.41903 454.741597,38.262127 457.277905,39.437823 C460.09345,40.686073 464.043227,40.857817 466.279772,41.657535 C468.228137,42.342631 469.019104,43.581525 469.269479,44.759448 C469.752345,47.031156 468.344763,49.924538 464.558583,50.729315 C461.697913,51.337369 459.173189,50.423028 457.682297,49.201 C457.520323,49.059551 457.493497,48.933345 457.457729,48.76507 C457.448787,48.723002 457.386194,48.428521 457.157966,48.389093 L456.076973,51.784658 C458.612262,53.576141 461.798502,54.086057 465.03779,53.397526 C471.432227,52.038346 472.851807,47.33967 472.145391,44.016246 C471.850306,42.62798 471.078241,40.857436 469.10671,39.649632 C466.378962,37.986996 462.515963,38.016654 459.822964,37.13808 C457.367134,36.341003 456.522515,34.849697 456.298966,33.79798 C455.869751,31.778684 457.210062,29.60311 460.196937,28.96823 C462.63692,28.449596 464.771444,29.183061 466.094061,30.440857 C466.213966,30.591248 466.264977,30.624375 466.300744,30.79265 C466.345454,31.002993 466.507428,31.144442 466.591566,31.126558 L467.906069,28.208991 L467.906069,28.208991 Z M513.626341,28.99952 C513.107707,26.559537 512.233016,23.27188 510.212511,20.799375 C507.772338,17.800503 504.45461,16.878842 501.59394,17.486896 C497.681554,18.318499 492.823322,22.56091 495.014105,32.867734 C497.204888,43.174558 503.353405,45.209321 507.349929,44.359833 C510.16853,43.760721 512.866621,41.560359 513.849253,37.702038 C514.638406,34.588352 514.118149,31.313297 513.626341,28.99952 L513.626341,28.99952 L513.626341,28.99952 Z M502.057904,20.290254 C503.908926,19.896807 506.413125,20.507726 508.276938,23.277353 C509.625363,25.277143 510.288087,27.774437 510.762012,30.004076 C511.128633,31.728892 511.60784,34.397102 511.038989,36.892359 C510.364458,39.717865 508.508759,41.123601 506.741875,41.499164 C503.797068,42.125102 499.597934,40.159648 497.827424,31.830052 C496.164217,24.005279 499.323441,20.871482 502.057904,20.290254 L502.057904,20.290254 L502.057904,20.290254 Z M540.756111,36.863406 L543.574712,36.264294 L539.193146,15.650646 L555.152538,33.84732 L557.466315,33.355512 L552.119016,8.198448 C552.056422,7.903967 552.113734,7.759877 552.162103,7.573719 C552.186288,7.480639 552.267784,7.24347 552.172063,7 L549.058982,7.661706 L553.190173,27.097431 L538.045933,10.046571 L535.185263,10.654625 L540.756111,36.863406 L540.756111,36.863406 Z" id="L-I-S-A--F-O-L-K-E-R" fill="#000000" sketch:type="MSShapeGroup"></path>
            <path d="M10,169.957853 L573.08622,52" id="Line-3" stroke="#000000" sketch:type="MSShapeGroup"></path>
        </g>
    </g>
</svg>