<?xml version="1.0" encoding="UTF-8" standalone="no"?>
<svg width="548px" height="142px" viewBox="0 0 548 142" version="1.1" xmlns="http://www.w3.org/2000/svg" xmlns:xlink="http://www.w3.org/1999/xlink" xmlns:sketch="http://www.bohemiancoding.com/sketch/ns">
    <!-- Generator: Sketch 3.2.2 (9983) - http://www.bohemiancoding.com/sketch -->
    <title>L-I-S-A--F-O-L-K-E-R</title>
    <desc>Created with Sketch.</desc>
    <defs></defs>
    <g id="Page-1" stroke="none" stroke-width="1" fill="none" fill-rule="evenodd" sketch:type="MSPage">
        <path d="M-5.68434189e-14,115.286199 L5.57979,141.537048 L21.271404,138.201693 L20.725944,135.635504 L8.105343,138.318096 L3.37504,116.06377 C3.294562,115.685152 3.342932,115.498993 3.424428,115.261824 C3.43967,115.126676 3.512225,114.847438 3.407562,114.561899 L-5.68434189e-14,115.286199 L-5.68434189e-14,115.286199 Z M42.99418,106.147504 L43.521756,108.629555 L48.401722,107.592287 L52.926359,128.879033 L47.751913,129.978896 L48.279489,132.460947 L61.825601,129.581632 L61.306966,127.14165 L55.838039,128.304106 L51.30446,106.975291 L56.520975,105.866486 L55.993398,103.384435 L42.99418,106.147504 L42.99418,106.147504 Z M100.322383,97.21575 C98.1084,95.487879 95.216641,94.915369 92.355971,95.523423 C87.64428,96.524924 85.02463,100.335479 85.784697,103.911316 C86.106608,105.425788 87.157911,107.268886 89.694219,108.444582 C92.509764,109.692831 96.459541,109.864575 98.696086,110.664294 C100.644451,111.34939 101.435418,112.588284 101.685793,113.766207 C102.168659,116.037915 100.761077,118.931297 96.974897,119.736074 C94.114227,120.344128 91.589503,119.429787 90.098611,118.207759 C89.936637,118.06631 89.909811,117.940104 89.874043,117.771829 C89.865101,117.72976 89.802508,117.43528 89.57428,117.395852 L88.493287,120.791417 C91.028576,122.5829 94.214816,123.092816 97.454104,122.404284 C103.848541,121.045105 105.268121,116.346429 104.561705,113.023004 C104.26662,111.634738 103.494555,109.864195 101.523024,108.656391 C98.795276,106.993755 94.932277,107.023413 92.239278,106.144839 C89.783448,105.347761 88.938829,103.856456 88.71528,102.804739 C88.286065,100.785443 89.626376,98.609869 92.613251,97.974989 C95.053234,97.456355 97.187758,98.18982 98.510375,99.447616 C98.63028,99.598007 98.681291,99.631134 98.717058,99.799408 C98.761768,100.009752 98.923742,100.151201 99.007879,100.133317 L100.322383,97.21575 L100.322383,97.21575 Z M129.640295,115.167174 L132.500965,114.55912 L133.430773,106.315093 L141.760369,104.544583 L146.290546,111.584085 L149.31949,110.940263 L133.5538,86.4148 L133.21725,86.486336 L129.640295,115.167174 L129.640295,115.167174 Z M140.604404,102.415946 L133.536867,103.918198 L134.774172,93.190497 L140.604404,102.415946 L140.604404,102.415946 Z M189.804892,74.897954 L195.384683,101.148804 L198.329489,100.522866 L195.593246,87.649853 L205.395246,85.566374 L204.849786,83.000185 L195.047786,85.083664 L193.304101,76.880274 L205.461947,74.296044 L204.907544,71.687787 L189.804892,74.897954 L189.804892,74.897954 Z M251.214327,75.65135 C250.695693,73.211367 249.821002,69.92371 247.800498,67.451205 C245.360324,64.452332 242.042596,63.530672 239.181926,64.138726 C235.26954,64.970329 230.411309,69.21274 232.602092,79.519564 C234.792875,89.826388 240.941391,91.86115 244.937915,91.011663 C247.756516,90.412551 250.454607,88.212188 251.437239,84.353868 C252.226393,81.240182 251.706136,77.965127 251.214327,75.65135 L251.214327,75.65135 L251.214327,75.65135 Z M239.645891,66.942084 C241.496912,66.548637 244.001111,67.159556 245.864925,69.929183 C247.213349,71.928972 247.876074,74.426266 248.349998,76.655906 C248.716619,78.380721 249.195826,81.048931 248.626976,83.544189 C247.952444,86.369695 246.096745,87.775431 244.329861,88.150994 C241.385054,88.776932 237.18592,86.811478 235.41541,78.481881 C233.752203,70.657109 236.911427,67.523312 239.645891,66.942084 L239.645891,66.942084 L239.645891,66.942084 Z M273.446348,57.163383 L279.026138,83.414233 L294.717752,80.078877 L294.172292,77.512689 L281.551691,80.19528 L276.821388,57.940954 C276.74091,57.562336 276.78928,57.376178 276.870776,57.139008 C276.886019,57.00386 276.958573,56.724622 276.85391,56.439084 L273.446348,57.163383 L273.446348,57.163383 Z M314.496427,48.39395 L320.076217,74.6448 L323.231368,73.974152 L320.924339,63.120435 L322.502837,60.410571 L334.415333,71.772804 C334.415333,71.772804 336.071254,71.288919 338.132618,70.850763 L324.356914,58.169762 L331.879729,44.742985 L330.785944,44.975476 C330.070777,45.12749 329.304599,45.246376 328.553663,45.230115 L320.226865,59.839079 L317.884069,48.817088 C317.848301,48.648813 317.821475,48.522607 317.911913,48.327507 C317.969224,48.183417 318.134858,47.928364 318.030195,47.642825 L314.496427,48.39395 L314.496427,48.39395 Z M357.280263,39.299965 L362.860054,65.550815 L378.804079,62.161807 L378.249677,59.55355 L365.082184,62.352387 L363.016588,52.634525 L373.996511,50.30067 L373.424225,47.608275 L362.444302,49.94213 L360.611198,41.318053 L373.904897,38.49239 L373.350495,35.884132 L357.280263,39.299965 L357.280263,39.299965 Z M399.231668,30.426888 L404.802517,56.635669 L407.789392,56.000789 L405.33035,44.431905 L410.420659,43.349926 L418.685177,53.684818 L421.966534,52.987345 L413.422777,42.579899 C416.432215,41.016867 417.951779,37.616019 417.209595,34.12432 C416.655193,31.516062 414.823488,29.311212 412.166256,28.600913 C410.30467,28.117218 408.65505,28.423887 406.972303,28.781565 L399.231668,30.426888 L399.231668,30.426888 Z M402.799772,32.526472 L407.553532,31.516029 C408.647317,31.283538 409.707976,31.102057 410.875938,31.4254 C412.695456,31.918037 413.885566,33.379876 414.252187,35.104691 C414.609865,36.787438 414.141414,38.513876 412.787897,39.593023 C411.885553,40.312454 410.884847,40.56913 409.875199,40.783738 L404.78489,41.865716 L402.799772,32.526472 L402.799772,32.526472 Z M457.906069,21.208991 C455.692086,19.48112 452.800327,18.90861 449.939657,19.516664 C445.227966,20.518165 442.608316,24.328721 443.368384,27.904557 C443.690294,29.41903 444.741597,31.262127 447.277905,32.437823 C450.09345,33.686073 454.043227,33.857817 456.279772,34.657535 C458.228137,35.342631 459.019104,36.581525 459.269479,37.759448 C459.752345,40.031156 458.344763,42.924538 454.558583,43.729315 C451.697913,44.337369 449.173189,43.423028 447.682297,42.201 C447.520323,42.059551 447.493497,41.933345 447.457729,41.76507 C447.448787,41.723002 447.386194,41.428521 447.157966,41.389093 L446.076973,44.784658 C448.612262,46.576141 451.798502,47.086057 455.03779,46.397526 C461.432227,45.038346 462.851807,40.33967 462.145391,37.016246 C461.850306,35.62798 461.078241,33.857436 459.10671,32.649632 C456.378962,30.986996 452.515963,31.016654 449.822964,30.13808 C447.367134,29.341003 446.522515,27.849697 446.298966,26.79798 C445.869751,24.778684 447.210062,22.60311 450.196937,21.96823 C452.63692,21.449596 454.771444,22.183061 456.094061,23.440857 C456.213966,23.591248 456.264977,23.624375 456.300744,23.79265 C456.345454,24.002993 456.507428,24.144442 456.591566,24.126558 L457.906069,21.208991 L457.906069,21.208991 Z M503.626341,21.99952 C503.107707,19.559537 502.233016,16.27188 500.212511,13.799375 C497.772338,10.800503 494.45461,9.878842 491.59394,10.486896 C487.681554,11.318499 482.823322,15.56091 485.014105,25.867734 C487.204888,36.174558 493.353405,38.209321 497.349929,37.359833 C500.16853,36.760721 502.866621,34.560359 503.849253,30.702038 C504.638406,27.588352 504.118149,24.313297 503.626341,21.99952 L503.626341,21.99952 L503.626341,21.99952 Z M492.057904,13.290254 C493.908926,12.896807 496.413125,13.507726 498.276938,16.277353 C499.625363,18.277143 500.288087,20.774437 500.762012,23.004076 C501.128633,24.728892 501.60784,27.397102 501.038989,29.892359 C500.364458,32.717865 498.508759,34.123601 496.741875,34.499164 C493.797068,35.125102 489.597934,33.159648 487.827424,24.830052 C486.164217,17.005279 489.323441,13.871482 492.057904,13.290254 L492.057904,13.290254 L492.057904,13.290254 Z M530.756111,29.863406 L533.574712,29.264294 L529.193146,8.650646 L545.152538,26.84732 L547.466315,26.355512 L542.119016,1.198448 C542.056422,0.903967 542.113734,0.759877 542.162103,0.573719 C542.186288,0.480639 542.267784,0.24347 542.172063,-1.42108547e-14 L539.058982,0.661706 L543.190173,20.097431 L528.045933,3.046571 L525.185263,3.654625 L530.756111,29.863406 L530.756111,29.863406 Z" id="L-I-S-A--F-O-L-K-E-R" fill="#000000" sketch:type="MSShapeGroup"></path>
    </g>
</svg>