<?xml version="1.0" encoding="UTF-8" standalone="no"?>
<svg width="633px" height="209px" viewBox="0 0 633 209" version="1.1" xmlns="http://www.w3.org/2000/svg" xmlns:xlink="http://www.w3.org/1999/xlink" xmlns:sketch="http://www.bohemiancoding.com/sketch/ns">
    <!-- Generator: Sketch 3.2.2 (9983) - http://www.bohemiancoding.com/sketch -->
    <title>Artboard 1</title>
    <desc>Created with Sketch.</desc>
    <defs></defs>
    <g id="Page-1" stroke="none" stroke-width="1" fill="none" fill-rule="evenodd" sketch:type="MSPage">
        <g id="Artboard-1" sketch:type="MSArtboardGroup">
            <g id="lili_dev_logo" sketch:type="MSLayerGroup" transform="translate(12.000000, 17.000000)">
                <g id="Page-1" sketch:type="MSShapeGroup">
                    <g id="Artboard-3" transform="translate(0.660000, 0.000000)">
                        <path d="M0.121105,128.765795 L5.302339,153.141584 L8.036802,152.560356 L5.496005,140.606844 L14.597862,138.672184 L14.091363,136.289295 L4.989506,138.223954 L3.370371,130.60652 L14.659798,128.206878 L14.144996,125.784925 L0.121105,128.765795 L0.121105,128.765795 Z M38.33377,120.684271 L43.5067,145.020996 L46.280227,144.431465 L43.996831,133.68893 L48.723547,132.684235 L56.397742,142.28092 L59.444716,141.633266 L51.511228,131.969209 C54.305705,130.517822 55.716729,127.359893 55.027559,124.1176 C54.512757,121.695647 52.811888,119.648286 50.344459,118.988723 C48.615843,118.539578 47.084053,118.824341 45.521502,119.156471 L38.33377,120.684271 L38.33377,120.684271 Z M41.647009,122.633884 L46.061214,121.695616 C47.076872,121.479731 48.061769,121.311214 49.146306,121.611461 C50.835858,122.068909 51.94096,123.426331 52.281394,125.027945 C52.613524,126.590496 52.178533,128.193617 50.921696,129.195682 C50.083805,129.863725 49.154578,130.102067 48.217048,130.301346 L43.490332,131.30604 L41.647009,122.633884 L41.647009,122.633884 Z M96.207916,121.162117 C95.726327,118.896419 94.914114,115.843595 93.037931,113.547697 C90.772056,110.763029 87.691308,109.907202 85.034972,110.471823 C81.402042,111.244026 76.890827,115.183408 78.925126,124.75403 C80.959424,134.324653 86.668761,136.214075 90.379819,135.425265 C92.997091,134.868947 95.502461,132.825753 96.414905,129.243027 C97.147691,126.351747 96.664595,123.310624 96.207916,121.162117 L96.207916,121.162117 L96.207916,121.162117 Z M85.465796,113.074941 C87.184602,112.709598 89.50993,113.27688 91.240614,115.848676 C92.492722,117.705624 93.108109,120.02454 93.548182,122.094919 C93.888615,123.696534 94.333593,126.174157 93.805375,128.491182 C93.179025,131.114866 91.455875,132.420192 89.815197,132.768929 C87.080734,133.350157 83.181538,131.525093 81.537493,123.790468 C79.993086,116.524608 82.926651,113.614653 85.465796,113.074941 L85.465796,113.074941 L85.465796,113.074941 Z M121.399846,128.464297 L124.017118,127.907979 L119.948521,108.766734 L134.767956,125.663646 L136.916463,125.206967 L131.951114,101.846836 C131.892991,101.573389 131.946209,101.439592 131.991124,101.26673 C132.013581,101.180299 132.089256,100.960071 132.000372,100.733991 L129.109654,101.348433 L132.94576,119.395892 L118.883251,103.56295 L116.226915,104.127572 L121.399846,128.464297 L121.399846,128.464297 Z M154.540164,95.943011 L155.06327,98.404028 L161.977556,96.934351 L166.643988,118.888186 L169.417515,118.298655 L164.751083,96.34482 L171.899752,94.825323 L171.376647,92.364306 L154.540164,95.943011 L154.540164,95.943011 Z M197.458178,98.08922 L198.014497,100.706492 L212.077452,97.717319 L211.521133,95.100046 L197.458178,98.08922 L197.458178,98.08922 Z M233.761478,79.104001 L238.942712,103.479789 L253.747878,100.332854 L253.233076,97.910901 L241.006118,100.509821 L239.088065,91.486091 L249.283707,89.318941 L248.752299,86.81886 L238.556656,88.986011 L236.854488,80.977939 L249.198638,78.354109 L248.683836,75.932156 L233.761478,79.104001 L233.761478,79.104001 Z M277.654902,95.251259 L280.272174,94.694941 L276.203577,75.553697 L291.023012,92.450608 L293.171519,91.993929 L288.20617,68.633798 C288.148047,68.360352 288.201265,68.226554 288.24618,68.053693 C288.268637,67.967262 288.344312,67.747033 288.255429,67.520954 L285.36471,68.135395 L289.200816,86.182854 L275.138307,70.349913 L272.481971,70.914534 L277.654902,95.251259 L277.654902,95.251259 Z M311.70199,62.578062 L316.883224,86.953851 L322.117768,85.841214 C324.031893,85.434354 325.608597,84.976729 327.144731,83.751983 C330.239456,81.21606 331.273435,76.668441 330.144192,71.355769 C329.147801,66.668118 326.86136,62.826276 323.304489,61.459221 C321.305825,60.700019 319.514743,60.91741 317.366236,61.374089 L311.70199,62.578062 L311.70199,62.578062 Z M314.778394,64.373873 L317.708176,63.751128 C319.231663,63.427301 320.771757,63.181602 322.560948,64.107815 C325.225202,65.501287 326.745468,68.811896 327.484458,72.288571 C328.472546,76.937159 327.466314,79.886562 325.795436,81.629893 C324.487834,82.969378 323.028321,83.402093 321.504834,83.72592 L319.004753,84.257329 L314.778394,64.373873 L314.778394,64.373873 Z M368.852277,50.430394 L377.964797,74.093048 L379.097646,73.852253 L379.903893,56.900294 L387.535419,72.058749 L388.590141,71.834561 L387.25131,46.519558 L384.946548,47.009451 L386.232192,64.006709 L379.156423,50.118299 L378.336084,50.292667 L377.504366,65.780208 L371.391422,49.890682 L368.852277,50.430394 L368.852277,50.430394 Z M409.548416,41.739334 L414.72965,66.115122 L429.534816,62.968187 L429.020014,60.546234 L416.793056,63.145154 L414.875003,54.121424 L425.070645,51.954274 L424.539237,49.454193 L414.343594,51.621343 L412.641426,43.613272 L424.985576,40.989442 L424.470774,38.567488 L409.548416,41.739334 L409.548416,41.739334 Z M448.190782,33.566474 L453.363712,57.903199 L460.277998,56.433522 C461.918677,56.084785 463.590115,55.688681 465.120398,54.628493 C467.505179,52.978389 468.44404,50.288279 467.912631,47.788198 C467.306493,44.936544 464.922481,42.748588 461.997043,42.43135 C463.993639,41.067901 464.951558,38.65954 464.453362,36.315714 C463.98838,34.128144 462.337331,32.315165 459.824987,31.828463 C458.160345,31.488206 456.589491,31.781273 455.105068,32.096797 L448.190782,33.566474 L448.190782,33.566474 Z M451.384377,35.337375 L455.25169,34.515352 C456.267347,34.299467 457.361133,34.066976 458.546254,34.264186 C460.328088,34.579533 461.478104,35.764093 461.777022,37.170389 C462.075939,38.576684 461.498847,40.087524 460.116516,41.075435 C459.083306,41.784995 457.950457,42.025789 456.856671,42.258281 L453.028422,43.072 L451.384377,35.337375 L451.384377,35.337375 Z M453.518315,45.376762 L457.502819,44.52983 C458.713795,44.272429 459.924772,44.015028 461.260297,44.343583 C463.239902,44.821036 464.58184,46.33226 464.955487,48.090129 C465.32083,49.808935 464.7711,51.640588 463.257424,52.778903 C462.302341,53.471857 461.255923,53.735108 460.201201,53.959296 L455.552613,54.947384 L453.518315,45.376762 L453.518315,45.376762 Z M507.02081,21.061765 L512.202044,45.437554 L517.436589,44.324917 C519.350713,43.918057 520.927417,43.460433 522.463551,42.235686 C525.558276,39.699763 526.592255,35.152144 525.463012,29.839473 C524.466621,25.151821 522.18018,21.309979 518.623309,19.942924 C516.624646,19.183722 514.833563,19.401113 512.685056,19.857793 L507.02081,21.061765 L507.02081,21.061765 Z M510.097214,22.857576 L513.026997,22.234831 C514.550483,21.911004 516.090577,21.665305 517.879768,22.591518 C520.544023,23.98499 522.064288,27.2956 522.803278,30.772275 C523.791366,35.420862 522.785134,38.370265 521.114256,40.113596 C519.806654,41.453081 518.347141,41.885796 516.823654,42.209623 L514.323573,42.741032 L510.097214,22.857576 L510.097214,22.857576 Z M546.27159,12.677926 L551.452824,37.053715 L566.25799,33.906779 L565.743188,31.484826 L553.51623,34.083746 L551.598177,25.060017 L561.79382,22.892866 L561.262411,20.392785 L551.066769,22.559936 L549.3646,14.551864 L561.70875,11.928034 L561.193948,9.506081 L546.27159,12.677926 L546.27159,12.677926 Z M584.007186,4.656977 L597.503151,27.42873 L598.753191,27.163026 L601.711374,0.934664 L599.015975,1.507589 L597.086304,21.433861 L586.858841,4.050839 L584.007186,4.656977 L584.007186,4.656977 Z" id="F-R-O-N-T---E-N-D--W" fill="#000000"></path>
                        <path d="M10.04871,173.861709 L614.048686,41.861714" id="Line-2" stroke="#000000"></path>
                    </g>
                </g>
            </g>
        </g>
    </g>
</svg>